<svg xmlns="http://www.w3.org/2000/svg" viewBox="0 0 256 256">
  <rect width="256" height="256" rx="56" fill="#020617" />
  <g fill="#f8fafc" transform="translate(49.68 23) scale(.19833)">
    <path d="M361.13,1058.28c28.61-24.08,55.58-46.86,82.62-69.55,41.82-35.09,83.8-69.99,125.49-105.23,39.2-33.13,57.7-75.81,57.69-126.9-.05-177.51-.02-355.01-.02-532.52v-9.26c10,3.28,18.99,5.96,27.69,9.36,1.36.53,1.99,4.36,2.02,6.68.17,14.17.25,28.35-.05,42.51-.11,5.26,1.68,7.95,6.82,9.47,15.55,4.58,30.97,9.59,47.4,14.73.21-2.91.48-5.06.49-7.22.1-14.17.02-28.35.23-42.52.15-10.07,3.69-12.79,13.08-9.76,17.45,5.63,34.83,11.45,52.15,17.48,9.32,3.24,12.66,8.43,12.67,18.46.03,35.78-.07,71.56.05,107.34.03,7.56-2.6,13.42-8.55,18.1-9.31,7.32-18.32,15.04-27.71,22.25-3.47,2.67-4.92,5.42-4.91,9.88.11,138.01.03,276.02.1,414.03.01,32.23-2.08,64.19-14.18,94.47-24.52,61.33-67.45,101.93-133.21,115.85-9.24,1.96-18.91,2.61-28.38,2.64-67.61.24-135.22.17-202.83.18-2.22,0-4.44-.24-8.67-.49ZM707.67,578.13c0-28.19.75-55.54-.53-82.79-.32-6.88-5.92-14.7-11.24-19.89-10.81-10.58-24.41-6.66-29.84,7.52-1.06,2.78-1.94,5.84-1.96,8.77-.15,24.56-.09,49.13-.09,74.2,14.53,4.06,28.94,8.09,43.64,12.2Z" />
    <path d="M550.29,611.15h-140.74c-.15-3.18-.37-5.67-.37-8.15-.02-58.79.02-117.58-.07-176.37,0-4.36.43-7.09,5.61-8.45,58.86-15.42,117.64-31.12,176.45-46.74.42-.11.9-.01,2.63-.01,0,2.81,0,5.68,0,8.54-.03,125.94.18,251.88-.23,377.83-.13,40.79-16.04,74.87-47.7,101.19-78.26,65.05-156.45,130.16-234.85,195.04-3.21,2.66-8.17,4.4-12.36,4.49-21.32.45-42.66.21-66.02.21,3.09-2.75,4.81-4.38,6.64-5.88,71.94-58.84,143.89-117.65,215.82-176.5,19.42-15.89,38.64-32.02,58.12-47.83,25.37-20.58,37.33-47.15,37.14-79.7-.26-43.22-.07-86.44-.08-129.66,0-2.29,0-4.57,0-8Z" />
    <path d="M560.11,210.07c0-7.96,0-15.13,0-22.31.01-55.3.02-110.61.03-165.91,0-13.02,7.86-22.02,19.1-21.85,11.18.17,18.62,8.67,18.62,21.58-.02,58.79,3.25,117.83-1.19,176.29-3.69,48.59-.74,96.93-2.82,145.33-.24,5.6-3.85,5.64-7.21,6.51-38.68,10.01-77.36,19.98-116.08,29.85-26.11,6.66-52.25,13.21-78.42,19.65-13.71,3.38-24.86-5.34-24.87-19.28-.03-34.86.01-69.71.07-104.57.02-12.2,5.31-18.61,17.17-21.91,16.55-4.6,33.02-9.5,49.53-14.27,12.34-3.56,18.24.81,18.31,13.64.07,11.85-.05,23.7.09,35.55.09,7.1,1.61,8.22,8.64,6.39,14.15-3.7,28.21-7.77,42.4-11.3,5.37-1.34,6.93-4.22,6.84-9.43-.26-14.4.02-28.81-.19-43.22-.1-6.94,2.65-10.63,9.69-11.98,13.22-2.53,26.31-5.68,40.3-8.76Z" />
    <path d="M361.32,924.39c-47.66,5.68-95.31,11.36-143.75,17.13-.12,2.35-.34,4.79-.35,7.24-.04,23.47.13,46.94-.25,70.41-.05,3.11-2.01,7.08-4.39,9.12-10.77,9.2-21.85,18.06-33.17,26.57-2.88,2.16-7.06,3.65-10.65,3.67-49.49.29-98.99.3-148.49.31-13.39,0-20.24-6.84-20.25-20.15-.04-31.6-.03-63.21.03-94.81.03-13.68,7.96-21.79,21.61-21.78,95.97.05,191.94.2,287.91.31,17.15.02,34.3,0,51.45,0,.1.66.2,1.33.3,1.99Z" />
    <path d="M179.64,881.76c0-27.43-.27-54.36.13-81.28.16-11.16,9.64-18.62,21.94-18.62,52.72.02,105.44.02,158.16.07,44.36.04,88.72.15,133.07.23,3.93,0,7.87,0,11.94,1.58-41.18,4.92-82.37,9.83-124.17,14.82v83.19h-201.07Z" />
    <path d="M541.46,651.31v11.92h-63.14v83.22h-180.91c-.16-2.11-.45-4.12-.45-6.13-.03-21.82-.06-43.65.02-65.47.05-15.26,8.51-23.64,23.77-23.63,70.81.02,141.62.06,212.43.1,2.51,0,5.02,0,8.29,0Z" />
    <path d="M789.79,68.43c-21.66,23.89-42.73,46.06-74.45,52.96-7.27,1.58-15.63,2.2-22.63.21-25.49-7.24-50.59-9.24-76.16,1.67-.36-2.34-.77-3.82-.79-5.3-.28-22.74-.36-45.48-.88-68.22-.11-4.86,1.6-6.76,6.03-8.28,34.87-11.94,67.86-10,98.71,11.86,19.17,13.58,40.53,19.02,63.96,15.43,1.5-.23,3.04-.17,6.2-.33Z" />
    <path d="M230.89,504.03c27.49.25,49.21,22.49,48.96,50.14-.27,28.73-22.72,51.45-50.58,51.18-27.41-.27-49.86-23.56-49.59-51.46.26-27.63,23.35-50.1,51.22-49.85Z" />
  </g>
</svg>
